<svg xmlns="http://www.w3.org/2000/svg" xmlns:xlink="http://www.w3.org/1999/xlink" version="1.1" id="Layer_1" x="0px" y="0px" style="enable-background:new 0 0 1080 1080;" xml:space="preserve" viewBox="257.24 310.86 596.61 390.83">
<style type="text/css">
	.st0{fill:#FFFFFF;}
	.st1{font-family:'Rubik-Regular';}
	.st2{font-size:42.7881px;}
	.st3{fill:#D7E7C1;}
	.st4{fill:#BAD7F2;}
</style>
<g>
	<path class="st0" d="M433.5,574.9c-18.9,0-37.8,0.4-56.7,0c-25.1-0.5-46.3-25.3-51.5-48.8c-5.1-23.1,3.1-50.7,22.6-64.9   c6.7-4.9,14.1-8.4,22-10.9c0,0,0,0.1,0,0.1c1.5-0.5,2.9-1,4.4-1.4c1.2-0.3,2.5-0.6,3.7-0.9c5.9-1.3,7.5,0.2,6.3-5.7   c-1-4.9-5.2-10.5-7.5-15c-4.9-9.6-9.8-19.1-14.9-28.6c-3-5.5-7.1-3.6-11.9-1.8c-12.5,4.6-24.4,11.2-34.9,19.3   c-27.6,21.1-43.7,55.6-44.9,90.2c-1.1,29.8,8.9,58.2,27.1,81.5c24.7,31.6,59.9,44.3,98.6,44.3h74.9c63.8-7.7,84-57.3,84-57.3H433.5   z"/>
	<text transform="matrix(1 0 0 1 342.3395 691.195)"><tspan x="0" y="0" class="st0 st1 st2">CLOUD</tspan><tspan x="140.7" y="0" class="st3 st1 st2">LIFT</tspan><tspan x="226" y="0" class="st0 st1 st2"> SOLUTIONS</tspan></text>
	<g>
		<path class="st4" d="M280.1,411.7c-11-12.8-19.9-27-22.3-44.2c-2.6-18.5,3.8-33.2,19.7-43.3c15.9-10.2,33.9-12.9,52.3-13.3    c38.6-0.7,75.3,8.4,110.9,22.3c43.1,16.8,82.6,39.5,116.2,71.7c13.6,13.1,25.9,27.4,33.5,44.9c3,6.9,5.5,14.4,6.5,21.9    c2.5,20.5-7.1,36.4-26.7,45.6c-14,6.5-28.9,8.7-44.2,8.9c5.2-1.3,10.4-2.3,15.5-3.8c33-10.1,44.7-36.2,30-67.5    c-10.4-22-26.5-39.4-45.2-54.4c-50-40-106.5-64.8-170.5-71.1c-18.2-1.8-36.4-0.7-54,5.3c-27.1,9.2-38.6,30.8-30.4,57.2    c1.4,4.4,3.4,8.5,5.3,12.7C277.4,407.1,278.8,409.4,280.1,411.7z"/>
		<path class="st4" d="M508.8,523.1c6.4-3.1,14.3-6,21.1-10.4c16.5-11,21.3-29.5,13.5-49.4c-6.9-17.6-18.9-31.4-32.9-43.6    c-34.3-29.8-74.3-48.3-118.2-58.7c-24.6-5.8-49.5-8.4-74.7-3.7c-14,2.6-26.9,7.5-37.3,18c-0.4-7.3,4.6-16.2,12.4-21.9    c12.7-9.4,27.4-12.4,42.8-12.8c39.9-0.9,77.3,9.6,113.6,25c27.2,11.6,52.4,26.4,74.6,45.9c13.7,12.1,26.3,25.3,33.9,42.3    c2.6,5.9,4.8,12.2,5.6,18.6c2.2,16.4-4.2,29.1-17.9,38.3C533.7,518.3,520.9,521.4,508.8,523.1z"/>
	</g>
	<rect x="780.7" y="435.6" class="st3" width="16.3" height="16.3"/>
	<rect x="812.6" y="421.7" class="st3" width="30.1" height="31.2"/>
	<rect x="754.9" y="399.5" class="st3" width="24.7" height="26.3"/>
	<path class="st0" d="M853.6,554c-2.9-36.1-32.2-63.8-69.3-65.2c-13-0.5-26-0.4-39.1-0.3c-21.8,0.1-43.6,0.3-65.5,0.4   c-11.5,0.1-20.3-7.8-20.5-18.4c-0.2-10.9,7.4-18.5,19.3-18.5c22.1-0.1,44.1-0.1,66.2-0.1v-27.9h-24v-25.9   c-15.8,0.1-31.6,0.6-47.3,2.5c-18.6,2.2-37.8,7.7-50.6,22.5c-17.7,20.5-21.3,51.3-10.6,75.8c12.6,28.9,36.2,43.1,67.9,43.1   c33.7,0.1,67.5-0.1,101.2-0.1c11.1,0,19,7.9,18.9,18.4c-0.1,10.2-7.9,17.7-18.6,18c-2.2,0.1-4.4,0-6.6,0c-62.9,0-125.7,0-188.6-0.1   c-4.1,0-5.9,1.4-7.6,5c-7.2,16-17.7,29.6-31.1,40.9c-2.8,2.4-5.8,4.6-10.1,7.9c3.4,0,5.1,0,6.8,0c77.1,0,154.2-0.1,231.4-0.2   c6.4,0,12.9-0.2,19.2-1.3C831.9,623.8,856.6,591.3,853.6,554z"/>
</g>
</svg>